<?xml version="1.0" encoding="utf-8"?>
<!-- Generator: Adobe Illustrator 27.5.0, SVG Export Plug-In . SVG Version: 6.00 Build 0)  -->
<svg version="1.1" xmlns="http://www.w3.org/2000/svg" xmlns:xlink="http://www.w3.org/1999/xlink" x="0px" y="0px"
	 viewBox="0 0 2200 2200" style="enable-background:new 0 0 2200 2200;" xml:space="preserve">
<g id="background">
	<rect y="0" style="fill:#FFFFFF;" width="2200" height="2200"/>
</g>
<g id="Objects">
	<g>
		<circle style="fill:#282B30;" cx="1100" cy="1024.525" r="769.148"/>
		<path style="fill:#51AD58;" d="M765.871,1024.525c0,79.789,27.967,153.041,74.627,210.493
			c12.476,15.361,11.356,37.653-2.637,51.646L696.474,1428.05c-15.812,15.812-41.687,14.899-56.4-1.939
			c-93.804-107.35-150.642-247.831-150.642-401.586c0-168.602,68.343-321.242,178.83-431.738l195.474,195.474
			C803.274,848.722,765.871,932.252,765.871,1024.525z"/>
		<path style="fill:#EACA44;" d="M1531.738,592.787l-195.474,195.474c-60.462-60.462-143.991-97.865-236.264-97.865
			s-175.802,37.403-236.264,97.865L668.262,592.787C778.759,482.3,931.398,413.957,1100,413.957S1421.241,482.3,1531.738,592.787z"
			/>
		<path style="fill:#F04D4D;" d="M1710.568,1024.525c0,153.756-56.837,294.237-150.642,401.586
			c-14.714,16.838-40.589,17.751-56.4,1.939l-141.386-141.386c-13.993-13.993-15.113-36.285-2.637-51.646
			c46.66-57.452,74.626-130.704,74.626-210.493c0-92.273-37.403-175.802-97.865-236.264l195.474-195.474
			C1642.224,703.283,1710.568,855.923,1710.568,1024.525z"/>
		<path style="fill:#FFFFFF;" d="M1186.398,1110.93c-47.714,47.714-125.089,47.714-172.803,0
			c-47.714-47.714-47.714-125.089,0-172.803c85.396-85.396,329.805-226.376,436.074-285.823c14.592-8.163,30.715,7.96,22.552,22.552
			C1412.775,781.124,1271.794,1025.534,1186.398,1110.93z"/>
		<ellipse style="fill:none;" cx="1100" cy="1903.452" rx="547.373" ry="41.172"/>
	</g>
</g>
</svg>
