<?xml version="1.0" encoding="utf-8"?>
<!-- Generator: Adobe Illustrator 27.5.0, SVG Export Plug-In . SVG Version: 6.00 Build 0)  -->
<svg version="1.1" xmlns="http://www.w3.org/2000/svg" xmlns:xlink="http://www.w3.org/1999/xlink" x="0px" y="0px"
	 viewBox="0 0 2200 2200" style="enable-background:new 0 0 2200 2200;" xml:space="preserve">
<g id="background">
	<rect y="0" style="fill:#FFFFFF;" width="2200" height="2200"/>
</g>
<g id="Objects">
	<g>
		<path style="fill:#FFFFFF;" d="M182.071,1547.467c0-506.958,410.971-917.929,917.929-917.929s917.929,410.971,917.929,917.929
			H182.071z"/>
		<path style="fill:#72BF58;" d="M831.075,1044.578c-160.727,92.992-268.851,266.774-268.851,465.801H182.071
			c0-339.726,184.562-636.356,458.89-795.081L831.075,1044.578z"/>
		<path style="fill:#FFC648;" d="M1559.039,715.298l-190.101,329.28c-79.109-45.779-170.964-71.976-268.938-71.976
			s-189.817,26.197-268.925,71.976l-190.113-329.28C775.999,637.166,932.77,592.45,1100,592.45S1424.001,637.166,1559.039,715.298z"
			/>
		<path style="fill:#E24242;" d="M2017.929,1510.379h-380.152c0-199.027-108.124-372.809-268.839-465.801l190.101-329.28
			C1833.366,874.023,2017.929,1170.653,2017.929,1510.379z"/>
		<path style="fill:#E8E8E8;" d="M1979.951,1138.633c-48.103-113.724-116.964-215.852-204.652-303.553
			c-87.701-87.701-189.829-156.549-303.553-204.652c-117.767-49.809-242.84-75.066-371.746-75.066s-253.979,25.257-371.746,75.066
			C614.53,678.532,512.402,747.379,424.701,835.08c-87.688,87.701-156.549,189.829-204.652,303.553
			c-49.809,117.767-75.066,242.84-75.066,371.746c0,20.485,16.603,37.088,37.088,37.088h825.159v-74.176H219.913
			c4.352-105.825,27.322-208.521,68.452-305.766c44.357-104.885,107.877-199.089,188.79-279.99
			c80.901-80.914,175.105-144.433,279.99-188.79c108.569-45.927,223.925-69.206,342.854-69.206
			c118.929,0,234.285,23.279,342.854,69.206c104.885,44.357,199.088,107.877,279.99,188.79
			c80.914,80.901,144.433,175.105,188.79,279.99c41.131,97.245,64.1,199.942,68.452,305.766H1192.77v74.176h825.159
			c20.485,0,37.088-16.603,37.088-37.088C2055.017,1381.473,2029.76,1256.4,1979.951,1138.633z"/>
		<path style="fill:#2D2D2D;" d="M1158.364,1389.435c-4.723-340.913-29.052-600.579-58.364-600.579s-53.642,259.666-58.364,600.579
			c-44.914,21.721-75.894,67.71-75.894,120.944c0,74.151,60.107,134.259,134.259,134.259s134.259-60.107,134.259-134.259
			C1234.259,1457.145,1203.278,1411.156,1158.364,1389.435z M1100,1563.848c-29.534,0-53.469-23.934-53.469-53.469
			c0-29.534,23.934-53.469,53.469-53.469s53.469,23.934,53.469,53.469C1153.469,1539.914,1129.534,1563.848,1100,1563.848z"/>
	</g>
</g>
</svg>
